<?xml version="1.0" encoding="utf-8"?>
<!-- Generator: Adobe Illustrator 28.0.0, SVG Export Plug-In . SVG Version: 6.00 Build 0)  -->
<svg version="1.1" id="Layer_1" xmlns="http://www.w3.org/2000/svg" xmlns:xlink="http://www.w3.org/1999/xlink" x="0px" y="0px"
	 viewBox="0 0 512 512" style="enable-background:new 0 0 512 512;" xml:space="preserve">
<style type="text/css">
	.st0{fill:#451735;}
</style>
<g>
	<path class="st0" d="M71.43,254.07c0,18.39-13.93,33.78-32.22,35.62v-71.26C57.5,220.28,71.43,235.68,71.43,254.07z M0,257.66
		v32.04h32.05C30.34,272.77,16.94,259.37,0,257.66z M0,250.48h32.05v-32.03C15.11,220.15,1.71,233.54,0,250.48z M105.89,228.29
		h20.31c13.04,0,21.44,6.78,21.44,17.75c0,10.97-8.38,17.75-21.44,17.75h-9.11v16.06h-11.2V228.29z M125.85,254.63
		c7.07,0,10.38-2.72,10.38-8.62c0-5.89-3.31-8.62-10.38-8.62h-8.77v17.28L125.85,254.63z M148.09,261.65v-0.37
		c0-11.93,7.73-19.76,19.16-19.76c10.78,0,18.56,7.59,18.56,20.04v2.5h-26.89c0.6,5.82,3.59,8.55,8.47,8.55
		c3.54,0,6.04-1.54,7.15-4.19h10.9c-1.62,7.44-8.77,12.58-18.12,12.58C155.46,281.02,148.09,273.83,148.09,261.65L148.09,261.65z
		 M159.21,256.94h15.69c-1.03-4.86-3.75-7.29-7.73-7.29C163.19,249.65,160.17,252.01,159.21,256.94z M191.98,242.72h10.53v5.67
		c2.28-3.98,6.32-6.11,11.71-6.11h2.13v10.18h-9.28c-2.8,0-4.27,1.47-4.27,4.19v23.2h-10.82L191.98,242.72z M219.09,268.44h10.11
		c0.37,2.95,2.72,4.49,7.96,4.49c4.42,0,6.55-1.4,6.55-3.38c0-1.62-1.03-2.36-3.68-2.87l-8.86-1.71
		c-8.17-1.47-11.41-4.86-11.41-10.83c0-7.37,5.99-12.57,16.72-12.57c10.02,0,16.87,5.01,17.37,12.3h-10.07
		c-0.44-2.65-2.87-4.19-7.37-4.19c-4.19,0-6.26,1.33-6.26,3.32c0,1.54,1.03,2.28,3.59,2.8l8.91,1.69c8.1,1.47,11.34,4.86,11.34,10.9
		c0,7.73-6.26,12.66-16.94,12.66C225.79,281.02,219.45,275.8,219.09,268.44L219.09,268.44z M259.88,242.72h10.53v5.89
		c2.22-4.42,6.41-6.92,11.71-6.92c8.92,0,15.77,6.99,15.77,19.16v0.37c0,12.08-7.22,19.66-16.13,19.66c-4.86,0-8.84-1.99-11.05-5.67
		v18.34h-10.83V242.72z M286.68,261.51v-0.96c0-6.78-2.95-10.39-7.88-10.39c-5.16,0-8.1,3.54-8.1,10.32v1.62
		c0,7.29,2.99,10.31,7.88,10.31C283.31,272.41,286.68,268.44,286.68,261.51z M302.31,261.65v-0.37c0-11.93,7.74-19.76,19.16-19.76
		c10.78,0,18.56,7.59,18.56,20.04v2.5h-26.89c0.6,5.82,3.59,8.55,8.47,8.55c3.53,0,6.04-1.54,7.14-4.19h10.9
		c-1.62,7.44-8.76,12.58-18.11,12.58C309.67,281.02,302.31,273.83,302.31,261.65z M313.43,256.94h15.69
		c-1.04-4.86-3.76-7.29-7.74-7.29C317.41,249.65,314.39,252.01,313.43,256.94L313.43,256.94z M344.29,261.58v-0.44
		c0-11.56,7.88-19.59,18.78-19.59c9.72,0,16.65,5.6,17.61,14.73h-10.6c-0.44-3.98-3.25-6.26-6.85-6.26c-4.72,0-7.78,3.9-7.78,10.9
		v0.89c0,7.07,3.09,10.78,7.66,10.78c3.9,0,6.56-2.43,7.07-6.71h10.6c-0.96,9.43-7.78,15.17-17.83,15.17
		C351.95,281.02,344.29,273.44,344.29,261.58L344.29,261.58z M389.8,267.18v-15.91h-6.41v-8.54h6.41v-10.78h10.78v10.78h10.9v8.54
		h-10.93v18.41c0,1.03,0.44,1.47,1.47,1.47h9.43v8.69h-8.25C394.51,279.85,389.8,275.35,389.8,267.18z M417.35,232.26
		c0.11-3.34,2.89-5.95,6.23-5.85c3.19,0.1,5.75,2.66,5.85,5.85c0.11,3.34-2.51,6.12-5.85,6.23s-6.12-2.51-6.23-5.85
		C417.34,232.52,417.34,232.39,417.35,232.26z M417.95,242.72h10.83v37.13h-10.84L417.95,242.72z M433.03,242.72h11.14l8.62,27.11
		l8.55-27.11h10.6l-12.52,37.13h-13.86L433.03,242.72z M474.27,261.65v-0.37c0-11.93,7.74-19.76,19.16-19.76
		c10.78,0,18.56,7.59,18.56,20.04v2.5H485.1c0.6,5.82,3.59,8.55,8.47,8.55c3.53,0,6.04-1.54,7.14-4.19h10.9
		c-1.62,7.44-8.77,12.58-18.12,12.58C481.64,281.02,474.27,273.83,474.27,261.65z M485.39,256.94h15.69
		c-1.04-4.86-3.76-7.29-7.74-7.29C489.38,249.65,486.35,252.01,485.39,256.94L485.39,256.94z"/>
</g>
</svg>
